<svg width="12" height="12" viewBox="0 0 12 12" fill="none" xmlns="http://www.w3.org/2000/svg">
<g clip-path="url(#clip0_39_153)">
<path d="M11.0926 8.56966C10.5466 7.83124 9.78405 7.27607 8.90829 6.9028V5.17847C8.90829 3.77601 7.59969 2.63525 5.9909 2.63525C4.38288 2.63525 3.07351 3.77601 3.07351 5.17847V6.89672C2.18456 7.27269 1.40964 7.83394 0.85735 8.5825V5.78368H0.861229V5.01483C0.86278 2.09563 3.51876 0.766207 5.98547 0.766207C7.47325 0.766207 8.8602 1.23144 9.7887 2.04289C10.6536 2.79821 11.0911 3.79765 11.088 5.01347L11.0911 5.78435H11.0926V8.56966ZM11.0926 11.2211L8.90829 11.2251V7.5993C9.27907 7.78593 9.62038 8.00367 9.91436 8.26063C10.4892 8.76305 10.8848 9.38922 11.0934 10.104V11.2211H11.0926ZM8.02555 6.5958C7.37008 6.41728 6.67894 6.32397 5.98625 6.32397C5.29665 6.32397 4.60939 6.41661 3.95625 6.5931V5.17847C3.95625 4.19932 4.86692 3.40477 5.9909 3.40477C7.11488 3.40477 8.02555 4.19932 8.02555 5.17847V6.5958ZM8.02555 9.29455C7.52367 8.80836 6.7984 8.50068 5.9909 8.50068C5.1834 8.50068 4.45813 8.80836 3.95625 9.29455V7.24226C4.61016 7.04007 5.30363 6.93864 5.98625 6.93864C6.70144 6.93864 7.39258 7.04751 8.02555 7.24429V9.29455ZM3.07351 11.2251L0.85735 11.2204V10.127C1.19943 8.94833 2.03253 8.11186 3.07351 7.59321V11.2251ZM11.9707 5.01483C11.9777 1.66759 8.98353 -0.00331879 5.98547 -0.00331879C2.98431 -0.00331879 -0.0199608 1.67097 -0.0215121 5.01483H-0.0253906V11.3414V11.689C-0.0253906 11.8587 0.132851 11.9967 0.327551 11.9967H3.60331C3.79801 11.9967 3.95625 11.8587 3.95625 11.689V10.9641C3.95625 9.99308 4.81495 9.14579 5.92807 9.11671C7.08075 9.08628 8.02555 9.89164 8.02555 10.8897V11.689C8.02555 11.8587 8.18379 11.9967 8.37849 11.9967H11.6224C11.8171 11.9967 11.9754 11.8587 11.9754 11.689V11.3414V5.01483H11.9707Z" fill="#F15A29"/>
</g>
<defs>
<clipPath id="clip0_39_153">
<rect width="12" height="12" fill="white"/>
</clipPath>
</defs>
</svg>
